<?xml version="1.0" encoding="UTF-8"?>
<svg id="Layer_1" data-name="Layer 1" xmlns="http://www.w3.org/2000/svg" viewBox="0 0 319.84 116.46">
  <defs>
    <style>
      .cls-1 {
        fill: #212121;
        stroke-width: 0px;
      }
    </style>
  </defs>
  <path class="cls-1" d="m3.19,45.39s.04-.04.05-.07c-2.16,3.93-.86,9.07,2.07,12.46s7.19,5.33,11.43,6.77c29.25,9.99,61.32.75,90.28-10.08,14.84-5.55,29.87-11.73,41.5-22.48,3.25-3,6.29-6.49,7.52-10.74,1.23-4.25.22-9.4-3.37-11.99-3.72-2.69-8.88-1.94-13.24-.51-12.67,4.14-23.31,12.79-33.26,21.66-16.39,14.63-41.76,44.08-22.55,66.35,18.31,21.23,50.69,15.42,75.67,9.65,55.2-12.76,107.87-34.42,160.25-55.99-45.08,18.56-89.4,39.11-136.7,53.11-20.04,5.93-41,12.44-62.07,12.41-26.12-.03-53.53-11.95-50.84-41.97.81-9.04,4.34-17.64,8.83-25.53,10.24-18.01,25.73-33,44.07-42.64,5.64-2.97,11.74-5.48,18.11-5.51,16.22-.09,22.26,16.07,15.84,29.32,0,0-2.99,19.4-71.64,37.31,0,0-42.53,11.19-66.42,2.99-11.07-3.8-25.08-12.45-15.53-24.51Z"/>
  <path class="cls-1" d="m2.02,44.46l.06-.07,2.49,1.66c-1.85,3.33-.59,7.99,1.93,10.82,2.84,3.2,6.77,4.94,10.85,6.34,25.66,8.65,53.37,2.4,78.28-6.08,11.22-3.95,22.55-7.96,33.16-13.33,7.85-4.04,15.38-8.92,21.46-15.34,1.94-2.12,3.58-4.49,4.44-7.12,1.78-4.97-.36-11.63-6.1-12.46-5.58-.83-11.37,1.86-16.41,4.19-5.28,2.59-10.21,5.92-14.9,9.56-9.3,7.36-18.22,15.42-25.62,24.72-10.57,12.97-20.29,32.67-8.06,47.6,7.24,9.4,18.84,14.26,30.47,15.37,11.78,1.18,23.73-.47,35.4-2.79,58.71-12.28,114.41-35.14,169.78-57.83,0,0,.59,1.44.59,1.44-50.12,20.77-99.83,43.36-152.41,57.49-25.65,7.08-55.1,13.36-79.81.04-6.99-3.89-12.96-9.92-15.9-17.44-9.85-26.37,13.17-57.54,32.69-73.6C114.16,9.98,128.01.42,140.67,0c16.34-.34,22.92,16.25,16.31,29.7-1.35,4.39-5.43,8.17-9.07,11.12-1.2,1.04-3.38,2.48-4.69,3.42-5.5,3.63-11.89,6.77-17.92,9.47-3.08,1.22-7.67,3.21-10.77,4.25-19.94,7.19-40.65,12.74-61.83,14.47-11.48.89-23.36,1.01-34.41-2.64-10.25-3.47-24.8-12.53-15.1-24.41,0,0-1.18-.93-1.18-.93h0Zm1.18.93c-9.63,11.89,4.84,20.87,15.13,24.33,17.77,5.64,39.18,2.6,57.25-.78,14.13-2.89,28.03-7.3,41.57-12.26,1.75-.71,6.23-2.56,8.02-3.29,0,0,5.24-2.44,5.24-2.44,7.72-3.75,15.43-8.17,21.53-14.29,1.9-2.08,3.88-4.43,4.64-7.15,1.89-4.05,2.84-8.61,2.33-13.06C156.71-.06,140.79-2.46,127.69,3.77c-16.39,7.54-30.75,19.43-41.47,33.92-12.77,16.97-24.06,43.11-8.5,61.75,8.9,10.35,22.89,14.51,36.1,15.68,18.07,1.38,35.99-2.76,53.3-7.61,52.52-14.26,102.02-36.91,152.13-57.82,0,0,.59,1.44.59,1.44-44.29,18.28-88.74,36.67-135,49.69-26.53,6.72-62.51,18.91-88.62,6.86-8.27-3.99-15.64-10.74-18.94-19.46-7.14-20.67,10.94-42.17,24.81-55.66,11.07-10.21,22.88-20.44,37.48-25.16,17.3-5.89,23.97,10.9,12.57,22.78-10.51,11.12-24.71,17.77-38.71,23.28-29.19,11.15-61.28,22.17-92.64,13.82-4.31-1.26-9.06-2.63-12.87-5.28-5.59-3.52-9.33-11.14-5.99-17.41,0,0,2.49,1.66,2.49,1.66l-.05.06-1.18-.93h0Z"/>
</svg>